<?xml version="1.0" encoding="UTF-8"?>
<svg xmlns="http://www.w3.org/2000/svg" viewBox="0 0 286.0 90.5">
  <g transform="translate(8,8)">
    <path fill="#282828" d="M59.968 23.68Q60.608000000000004 24.448 60.608000000000004 24.768Q60.608000000000004 25.088 59.712 25.088H8.768Q6.272 25.088 4.48 25.792L2.688 23.424Q5.76 23.68 7.36 23.68H29.952V17.664H15.872Q13.376 17.664 11.584 18.368000000000002L9.792 16.0Q12.864 16.256 14.464 16.256H29.952V10.176000000000002H11.776Q9.28 10.176000000000002 7.488 10.880000000000003L5.696 8.512Q8.768 8.768 10.368 8.768H29.952Q29.952 2.432000000000002 29.696 0.0L34.496 2.176000000000002Q34.944 2.368000000000002 34.944 2.5920000000000023Q34.944 2.8160000000000025 34.56 3.0080000000000027L32.96 3.9040000000000035V8.768H51.008L53.312 5.311999999999998L56.832 8.832Q57.472 9.472000000000001 57.472 9.824000000000002Q57.472 10.176000000000002 56.576 10.176000000000002H32.96V16.256H47.488L49.856 12.736000000000004L53.376 16.256Q54.016 16.896 54.016 17.28Q54.016 17.664 53.120000000000005 17.664H32.96V23.68H53.888L56.576 19.904ZM49.408 31.232000000000003 47.552 32.512V54.016000000000005Q47.552 56.832 47.168 57.952Q46.784 59.072 45.120000000000005 60.096000000000004Q43.456 61.120000000000005 43.072 61.120000000000005Q42.688 61.120000000000005 42.56 60.544000000000004Q42.304 59.072 40.8 58.176Q39.296 57.28 35.2 56.384V55.488Q39.744 56.128 41.472 56.128Q43.2 56.128 43.904 55.84Q44.608000000000004 55.552 44.608000000000004 54.528000000000006V47.232H17.984V58.496Q17.984 59.2 17.76 59.488Q17.536 59.776 16.64 60.128Q15.744 60.480000000000004 15.264 60.480000000000004Q14.784 60.480000000000004 14.784 59.072L14.976 49.984V36.352000000000004Q14.976 31.936 14.72 27.008000000000003L18.816 30.016000000000002H43.584L45.312 27.328000000000003L49.408 30.080000000000002Q49.92 30.400000000000002 49.92 30.624000000000002Q49.92 30.848000000000003 49.408 31.232000000000003ZM44.608000000000004 37.760000000000005V31.424000000000003H17.984V37.760000000000005ZM44.608000000000004 45.824V39.168H17.984V45.824Z"/>
    <path fill="#282828" d="M94.252 0.5760000000000005Q98.604 1.3440000000000012 100.844 2.5920000000000023Q103.084 3.8400000000000034 103.084 5.760000000000002Q103.084 7.68 101.42 7.68Q100.78 7.68 100.428 7.3919999999999995Q100.076 7.103999999999999 99.756 6.3359999999999985Q98.476 3.6480000000000032 93.868 1.2800000000000011ZM125.036 8.448Q125.356 8.832 125.356 9.056000000000001Q125.356 9.280000000000001 124.78 9.280000000000001H79.532Q77.036 9.280000000000001 75.244 9.984000000000002L73.452 7.68Q76.524 7.936 78.124 7.936H118.25200000000001L121.196 4.160000000000004ZM129.388 18.816000000000003Q129.836 19.264000000000003 129.836 19.488Q129.836 19.712 129.132 19.712H75.628Q73.132 19.712 71.34 20.416L69.548 18.112000000000002Q72.62 18.368000000000002 74.22 18.368000000000002H104.30000000000001Q106.092 15.872 109.42 9.600000000000001L112.94 12.032000000000004Q113.25999999999999 12.224000000000004 113.25999999999999 12.448000000000004Q113.25999999999999 12.672000000000004 112.876 12.736000000000004Q111.53200000000001 12.864000000000004 110.06 14.112000000000002Q108.588 15.36 105.77199999999999 18.368000000000002H122.732L125.612 14.847999999999999ZM87.276 10.240000000000002Q94.828 12.992000000000004 94.828 15.616Q94.828 16.448 94.38 17.12Q93.932 17.792 93.196 17.792Q92.46000000000001 17.792 91.852 16.352Q91.244 14.911999999999999 90.28399999999999 13.728000000000002Q89.324 12.544000000000004 87.084 11.008000000000003ZM119.404 25.664 117.868 26.816000000000003V35.264Q117.868 37.952 117.99600000000001 39.808L118.124 42.432Q118.124 43.328 116.812 43.776Q115.5 44.224000000000004 115.18 44.224000000000004Q114.86 44.224000000000004 114.86 43.456V41.024H85.676V42.112Q85.676 43.008 84.49199999999999 43.36Q83.30799999999999 43.712 82.86 43.712Q82.412 43.712 82.412 42.816L82.604 40.064Q82.668 38.464 82.668 36.032000000000004V27.584Q82.668 23.68 82.54 22.144000000000002L86.06 24.704H113.77199999999999L115.628 22.144000000000002L119.404 24.704Q119.724 24.96 119.724 25.184Q119.724 25.408 119.404 25.664ZM114.86 31.872V26.048000000000002H85.676V31.872ZM114.86 39.68V33.216H85.676V39.68ZM96.492 42.048Q101.292 43.712 103.05199999999999 45.088Q104.812 46.464 104.812 47.872Q104.812 49.28 104.30000000000001 49.984Q103.78800000000001 50.688 102.828 50.688Q101.868 50.688 101.548 49.408Q100.97200000000001 47.168 99.69200000000001 45.664Q98.412 44.160000000000004 96.172 42.624ZM113.452 46.272Q113.452 50.816 113.868 52.352000000000004Q114.28399999999999 53.888000000000005 115.5 54.464Q115.94800000000001 54.656 115.94800000000001 55.04Q115.94800000000001 55.424 114.668 56.96Q113.388 58.496 109.388 58.56Q105.388 58.624 99.052 58.624Q92.71600000000001 58.624 91.084 58.496Q89.452 58.368 88.49199999999999 57.760000000000005Q87.532 57.152 87.532 55.296V48.832Q87.532 45.760000000000005 87.34 43.584L91.564 46.016000000000005Q92.012 46.272 92.012 46.528Q92.012 46.784 91.69200000000001 46.976L90.476 47.808V53.824Q90.476 55.552 91.628 55.872Q92.78 56.192 100.044 56.192Q107.30799999999999 56.192 109.068 55.936Q110.828 55.68 111.53200000000001 54.08Q112.236 52.480000000000004 112.492 46.272ZM80.3 45.504000000000005Q80.3 52.352000000000004 78.412 55.42400000000001Q76.524 58.496 74.092 58.496Q73.26 58.496 72.62 58.016000000000005Q71.98 57.536 71.98 56.704Q71.98 55.424 73.132 54.848Q76.268 53.312000000000005 77.58 51.008Q78.892 48.704 79.532 45.376000000000005ZM117.99600000000001 45.504000000000005Q124.20400000000001 48.576 126.476 50.496Q128.748 52.416000000000004 128.748 54.400000000000006Q128.748 55.424 128.236 56.16Q127.724 56.896 127.084 56.896Q126.444 56.896 126.09200000000001 56.576Q125.74000000000001 56.256 125.356 55.296Q124.076 52.160000000000004 122.156 50.112Q120.236 48.064 117.612 46.144000000000005Z"/>
    <path fill="#282828" d="M196.184 25.152Q197.016 25.92 197.016 26.240000000000002Q197.016 26.560000000000002 195.928 26.560000000000002H169.88L167.064 35.968H184.728L187.032 33.28L190.744 36.608000000000004Q191.38400000000001 37.184 191.38400000000001 37.472Q191.38400000000001 37.760000000000005 190.328 37.984Q189.272 38.208 188.536 38.72Q187.8 39.232 184.216 42.976Q180.632 46.72 177.56 50.304Q181.528 52.544000000000004 183.128 54.08Q184.728 55.616 184.728 57.728Q184.728 58.752 184.28 59.456Q183.832 60.160000000000004 183.096 60.160000000000004Q182.36 60.160000000000004 181.912 59.712Q181.464 59.264 180.312 57.344Q179.16 55.424 173.59199999999998 51.584Q168.024 47.744 163.032 45.952L163.48 44.928000000000004Q172.312 47.552 176.216 49.6L184.984 37.376000000000005H167.832L166.10399999999998 39.232Q165.656 39.744 165.336 39.744Q165.016 39.744 164.312 39.04L161.304 36.032000000000004L164.632 34.176L166.808 26.560000000000002H157.912Q155.416 26.560000000000002 153.624 27.264000000000003L151.832 24.896Q154.904 25.152 156.504 25.152H167.192L170.392 14.335999999999999H161.112Q158.61599999999999 14.335999999999999 156.824 15.04L155.032 12.672000000000004Q158.10399999999998 12.928000000000004 159.704 12.928000000000004H170.776Q173.144 3.6480000000000032 173.848 0.38400000000000034L177.688 2.7520000000000024Q178.584 3.328000000000003 178.584 3.6480000000000032Q178.584 3.9680000000000035 177.94400000000002 4.288000000000004L176.344 5.1839999999999975L174.04 12.928000000000004H186.52L189.144 9.472000000000001L193.048 12.928000000000004Q193.94400000000002 13.695999999999998 193.94400000000002 14.015999999999998Q193.94400000000002 14.335999999999999 192.792 14.335999999999999H173.59199999999998L170.328 25.152H189.59199999999998L192.28 21.696ZM152.472 0.7040000000000006 156.44 3.584000000000003Q157.08 4.032000000000004 157.08 4.320000000000004Q157.08 4.608000000000004 156.312 4.896000000000001Q155.544 5.1839999999999975 155.096 5.727999999999998Q154.648 6.2719999999999985 152.92000000000002 9.695999999999998Q151.192 13.119999999999997 148.312 18.496000000000002L151.704 20.096Q152.088 20.288 152.088 20.48Q152.088 20.672 151.704 20.928L150.04 22.016000000000002V47.488Q150.04 52.480000000000004 150.168 55.136Q150.296 57.792 150.296 58.112Q150.296 59.2 148.98399999999998 59.68000000000001Q147.672 60.160000000000004 147.288 60.160000000000004Q146.904 60.160000000000004 146.904 58.816L147.032 53.888000000000005Q147.096 50.944 147.096 47.36V20.672Q141.208 31.168000000000003 137.368 35.2L136.6 34.624Q141.656 26.624000000000002 146.04000000000002 17.248Q150.424 7.872 152.472 0.7040000000000006Z"/>
    <path fill="#282828" d="M262.276 9.984000000000002Q262.852 10.624000000000002 262.852 11.008000000000003Q262.852 11.392000000000003 261.572 11.392000000000003H254.596V26.176000000000002L254.788 30.656000000000002Q254.788 31.232000000000003 253.604 31.712000000000003Q252.42000000000002 32.192 252.00400000000002 32.192Q251.588 32.192 251.588 31.488000000000003V28.032H234.88400000000001V30.912000000000003Q234.88400000000001 31.68 233.604 32.16Q232.324 32.64 232.132 32.64Q231.94 32.64 231.94 32.064L232.004 26.432000000000002V11.392000000000003Q229.124 11.456000000000003 227.46 12.096000000000004L225.668 9.728000000000002Q228.74 9.984000000000002 230.34 9.984000000000002H232.004V6.591999999999999Q232.004 3.520000000000003 231.812 0.7040000000000006L235.90800000000002 2.6240000000000023Q236.548 2.8800000000000026 236.548 3.168000000000003Q236.548 3.456000000000003 235.90800000000002 3.9040000000000035L234.88400000000001 4.608000000000004V9.984000000000002H251.588V6.719999999999999Q251.588 3.6480000000000032 251.39600000000002 0.8320000000000007L255.428 2.368000000000002Q256.068 2.6240000000000023 256.068 2.8480000000000025Q256.068 3.0720000000000027 255.556 3.392000000000003L254.596 4.032000000000004V9.984000000000002H257.284L259.332 6.847999999999999ZM251.588 18.112000000000002V11.392000000000003H234.88400000000001V18.112000000000002ZM251.588 26.624000000000002V19.52H234.88400000000001V26.624000000000002ZM227.012 17.92 225.09199999999998 19.072000000000003Q224.132 33.984 219.588 43.392Q221.572 44.800000000000004 222.724 45.952Q223.876 47.104 224.324 47.903999999999996Q224.772 48.704 224.772 49.632000000000005Q224.772 50.56 224.356 51.42400000000001Q223.94 52.288000000000004 223.108 52.288000000000004Q222.404 52.288000000000004 221.636 50.688Q220.548 48.448 218.18 46.016000000000005Q213.636 54.016000000000005 204.996 59.328L204.42 58.624Q212.676 51.904 216.452 44.352000000000004Q213.38 41.6 209.156 38.976Q210.756 31.296000000000003 212.612 17.984L211.39600000000002 18.048000000000002Q208.9 18.176000000000002 207.108 19.008000000000003L205.188 16.768Q208.516 16.896 210.116 16.832L212.804 16.704Q214.084 6.527999999999999 214.532 0.7040000000000006L219.012 2.9440000000000026Q219.588 3.200000000000003 219.588 3.424000000000003Q219.588 3.6480000000000032 219.14 3.9040000000000035L217.284 5.055999999999997Q216.644 10.304000000000002 215.62 16.576L221.572 16.32L223.236 14.143999999999998L227.012 16.96Q227.39600000000002 17.216 227.39600000000002 17.44Q227.39600000000002 17.664 227.012 17.92ZM222.02 17.536 215.428 17.856Q213.508 30.656000000000002 211.588 38.976Q214.724 40.448 217.476 42.048Q219.78 36.672 220.868 31.008Q221.956 25.344 222.02 17.536ZM264.58 54.336Q261.31600000000003 54.336 259.588 56.32Q259.26800000000003 56.704 259.012 56.704Q258.244 56.704 253.348 52.288Q248.452 47.872 245.572 39.616H244.42000000000002V48.96Q244.42000000000002 53.248000000000005 244.484 55.232L244.676 58.624Q244.676 59.584 243.45999999999998 60.032000000000004Q242.244 60.480000000000004 241.988 60.480000000000004Q241.22 60.480000000000004 241.22 58.624L241.348 55.36Q241.412 51.712 241.412 48.896V39.808Q232.068 53.760000000000005 218.756 59.776L218.244 58.944Q224.196 55.488 229.668 50.144000000000005Q235.14 44.800000000000004 238.084 39.616H230.084Q227.588 39.616 225.796 40.32L224.004 37.952Q227.076 38.208 228.676 38.208H241.412Q241.412 35.776 241.22 29.76L245.124 31.552Q245.828 31.872 245.828 32.192Q245.828 32.512 245.252 32.96L244.42000000000002 33.6V38.208H257.348L259.844 34.624L263.108 38.208Q263.748 38.976 263.748 39.296Q263.748 39.616 262.468 39.616H246.852Q249.348 45.504000000000005 253.95600000000002 49.184000000000005Q258.564 52.864000000000004 264.58 53.632000000000005Z"/>
    <g transform="translate(0,64.0) scale(1.1800,1)">
    <path fill="#282828" d="M5.488 10.8Q3.392 10.48 2.072 9.128Q0.752 7.776 0.752 6.192Q0.752 3.6960000000000006 2.352 2.0480000000000005Q3.952 0.40000000000000036 6.384 0.40000000000000036Q8.56 0.40000000000000036 10.04 1.9200000000000004Q11.52 3.4400000000000004 11.52 5.5520000000000005Q11.52 7.472 10.352 8.92Q9.184000000000001 10.368 7.072 10.752Q8.48 12.352 11.968 13.488V13.824000000000002Q10.048 13.824000000000002 8.488 13.056000000000001Q6.928 12.288 5.488 10.8ZM2.2720000000000002 5.632000000000001Q2.2720000000000002 7.76 3.3040000000000003 9.120000000000001Q4.336 10.48 6.048 10.48Q7.904 10.48 8.968 9.32Q10.032 8.16 10.032 6.064Q10.032 3.6160000000000005 9.008 2.1920000000000006Q7.984 0.7680000000000007 6.224 0.7680000000000007Q4.5120000000000005 0.7680000000000007 3.3920000000000003 2.1760000000000006Q2.2720000000000002 3.5840000000000005 2.2720000000000002 5.632000000000001Z"/>
    <path fill="#282828" d="M19.040000000000003 9.696V1.4239999999999995Q19.040000000000003 1.152000000000001 18.952000000000005 1.040000000000001Q18.864000000000004 0.9280000000000008 18.640000000000004 0.9120000000000008L17.232000000000003 0.7680000000000007V0.5120000000000005Q17.408 0.5600000000000005 20.592000000000002 0.5600000000000005Q21.536 0.5600000000000005 22.096000000000004 0.5120000000000005V0.7840000000000007L20.688000000000002 0.9280000000000008Q20.464000000000002 0.9440000000000008 20.376000000000005 1.040000000000001Q20.288000000000004 1.136000000000001 20.288000000000004 1.4239999999999995V9.696Q20.288000000000004 9.968 20.368000000000002 10.056000000000001Q20.448000000000004 10.144 20.688000000000002 10.16L22.096000000000004 10.24V10.624Q21.456000000000003 10.56 19.664 10.56Q17.872000000000003 10.56 17.232000000000003 10.624V10.24L18.640000000000004 10.16Q18.880000000000003 10.128 18.96 10.048Q19.040000000000003 9.968 19.040000000000003 9.696Z"/>
    <path fill="#282828" d="M29.328 9.488Q29.328 9.888 29.424 10.024000000000001Q29.52 10.16 29.824 10.192L31.296 10.352V10.608Q30.336000000000002 10.56 29.232 10.56Q28.416 10.56 27.152 10.608V10.352L28.032 10.192Q28.576 10.096 28.728 9.968Q28.880000000000003 9.84 28.880000000000003 9.488V2.5120000000000005Q28.880000000000003 1.7759999999999998 28.720000000000002 1.4080000000000004Q28.560000000000002 1.040000000000001 28.112000000000002 0.9760000000000009L27.168 0.8320000000000007V0.5600000000000005H29.088Q29.424 0.5600000000000005 29.560000000000002 0.6400000000000006Q29.696 0.7200000000000006 29.936 0.9760000000000009L37.168 8.864L37.008 1.6639999999999997Q36.992000000000004 1.216000000000001 36.856 1.088000000000001Q36.72 0.9600000000000009 36.432 0.9280000000000008L35.056 0.7680000000000007V0.5120000000000005Q35.504000000000005 0.5600000000000005 36.784 0.5600000000000005Q38.064 0.5600000000000005 38.512 0.5120000000000005V0.7680000000000007L37.84 0.8320000000000007Q37.568 0.8640000000000008 37.504 1.024000000000001Q37.44 1.184000000000001 37.456 1.6639999999999997L37.616 10.768H37.232L29.328 2.2880000000000003Z"/>
    <path fill="#282828" d="M55.888000000000005 6.384 54.848000000000006 6.496Q54.57600000000001 6.5280000000000005 54.47200000000001 6.6240000000000006Q54.368 6.720000000000001 54.368 6.944000000000001V8.72Q54.368 9.280000000000001 54.336 9.488Q54.304 9.696 54.184000000000005 9.864Q54.06400000000001 10.032 53.432 10.280000000000001Q52.800000000000004 10.528 51.968 10.672Q51.136 10.816 50.24 10.816Q47.616 10.816 46.064 9.424Q44.512 8.032 44.512 5.792000000000001Q44.512 3.4080000000000004 46.232 1.9040000000000004Q47.952000000000005 0.40000000000000036 50.656000000000006 0.40000000000000036Q52.784000000000006 0.40000000000000036 54.208000000000006 1.168000000000001L54.336000000000006 3.088L54.112 3.136Q53.120000000000005 0.7520000000000007 50.912000000000006 0.7520000000000007Q48.656000000000006 0.7520000000000007 47.376000000000005 2.0640000000000005Q46.096000000000004 3.3760000000000003 46.096000000000004 5.6000000000000005Q46.096000000000004 7.5360000000000005 47.416000000000004 8.984Q48.736000000000004 10.432 50.656000000000006 10.432Q53.056000000000004 10.432 53.056000000000004 8.72V6.944000000000001Q53.056000000000004 6.704000000000001 52.93600000000001 6.6080000000000005Q52.816 6.5120000000000005 52.56 6.496L51.024 6.384V6.096Q52.256 6.16 53.056000000000004 6.16Q54.64 6.16 55.888000000000005 6.096Z"/>
    <path fill="#282828" d="M67.13600000000001 10.144 68.33600000000001 10.32V10.608Q66.49600000000001 10.56 65.90400000000001 10.56Q64.56 10.56 63.504000000000005 10.608V10.352L64.70400000000001 10.16Q64.976 10.112 65.152 9.96Q65.328 9.808 65.328 9.616V6.944000000000001Q65.328 6.5760000000000005 65.04 6.144L62.19200000000001 1.8719999999999999Q61.55200000000001 0.9120000000000008 61.168000000000006 0.8640000000000008L60.464000000000006 0.7680000000000007V0.5120000000000005Q60.784000000000006 0.5600000000000005 62.62400000000001 0.5600000000000005Q64.11200000000001 0.5600000000000005 64.768 0.5120000000000005V0.7680000000000007L63.760000000000005 0.9120000000000008Q63.328 0.9760000000000009 63.328 1.216000000000001Q63.328 1.2960000000000012 63.392 1.3919999999999995L66.272 5.808000000000001L69.024 1.8399999999999999Q69.26400000000001 1.4879999999999995 69.26400000000001 1.2800000000000011Q69.26400000000001 0.9920000000000009 68.864 0.9280000000000008L67.84 0.7680000000000007V0.5120000000000005Q67.98400000000001 0.5600000000000005 69.536 0.5600000000000005Q70.84800000000001 0.5600000000000005 71.21600000000001 0.49600000000000044V0.7520000000000007L70.67200000000001 0.8800000000000008Q70.19200000000001 0.9440000000000008 69.31200000000001 2.176L66.736 5.792000000000001Q66.608 5.968 66.56 6.208Q66.512 6.448 66.512 6.960000000000001V9.584Q66.512 10.048 67.13600000000001 10.144Z"/>
    <path fill="#282828" d="M77.79200000000002 9.696V1.4239999999999995Q77.79200000000002 1.152000000000001 77.70400000000001 1.040000000000001Q77.61600000000001 0.9280000000000008 77.39200000000001 0.9120000000000008L75.98400000000001 0.7680000000000007V0.5120000000000005Q76.16000000000001 0.5600000000000005 79.34400000000001 0.5600000000000005Q80.28800000000001 0.5600000000000005 80.84800000000001 0.5120000000000005V0.7840000000000007L79.44000000000001 0.9280000000000008Q79.21600000000001 0.9440000000000008 79.12800000000001 1.040000000000001Q79.04 1.136000000000001 79.04 1.4239999999999995V9.696Q79.04 9.968 79.12 10.056000000000001Q79.20000000000002 10.144 79.44000000000001 10.16L80.84800000000001 10.24V10.624Q80.20800000000001 10.56 78.41600000000001 10.56Q76.62400000000001 10.56 75.98400000000001 10.624V10.24L77.39200000000001 10.16Q77.632 10.128 77.71200000000002 10.048Q77.79200000000002 9.968 77.79200000000002 9.696Z"/>
    <path fill="#282828" d="M108.51200000000001 10.608Q106.97600000000001 10.56 106.22400000000002 10.56Q105.23200000000001 10.56 103.936 10.608V10.352L104.89600000000002 10.16Q105.26400000000001 10.08 105.36000000000001 9.92Q105.45600000000002 9.76 105.45600000000002 9.296000000000001V1.8239999999999998L101.87200000000001 10.688L97.61600000000001 1.136000000000001V9.392000000000001Q97.61600000000001 10.144 98.09600000000002 10.192L99.56800000000001 10.352V10.608Q98.60800000000002 10.56 97.50400000000002 10.56Q96.68800000000002 10.56 95.424 10.608V10.352L96.30400000000002 10.192Q96.912 10.08 97.03200000000001 9.928Q97.15200000000002 9.776 97.15200000000002 9.392000000000001V0.9440000000000008L95.69600000000001 0.7680000000000007V0.5120000000000005Q95.96800000000002 0.5600000000000005 97.23200000000001 0.5600000000000005Q98.30400000000002 0.5600000000000005 98.70400000000001 0.5120000000000005L102.25600000000001 8.448L105.48800000000001 0.5120000000000005Q106.27200000000002 0.5600000000000005 107.05600000000001 0.5600000000000005Q107.82400000000001 0.5600000000000005 108.49600000000001 0.5120000000000005V0.7680000000000007L107.50400000000002 0.9760000000000009Q107.04 1.072000000000001 106.864 1.2640000000000002Q106.68800000000002 1.4559999999999995 106.68800000000002 1.92V9.184000000000001Q106.68800000000002 9.68 106.77600000000001 9.847999999999999Q106.864 10.016 107.15200000000002 10.08L108.51200000000001 10.352Z"/>
    <path fill="#282828" d="M123.248 7.968Q122.896 9.440000000000001 122.848 10.608Q120.864 10.56 118.176 10.56Q115.488 10.56 113.504 10.608V10.336L114.656 10.256Q114.92800000000001 10.24 115.03200000000001 10.144Q115.13600000000001 10.048 115.13600000000001 9.696V1.6479999999999997Q115.13600000000001 1.2640000000000011 115.048 1.096000000000001Q114.96000000000001 0.9280000000000008 114.736 0.9120000000000008L113.568 0.8000000000000007V0.5120000000000005Q114.864 0.5600000000000005 117.872 0.5600000000000005Q120.912 0.5600000000000005 122.176 0.5120000000000005Q122.128 1.008000000000001 122.128 1.6959999999999997Q122.128 2.224 122.16000000000001 2.7360000000000007H121.952Q121.60000000000001 1.8559999999999999 121.40800000000002 1.4800000000000004Q121.21600000000001 1.104000000000001 121.05600000000001 0.9920000000000009Q120.896 0.8800000000000008 120.62400000000001 0.8800000000000008H116.912Q116.64 0.8800000000000008 116.54400000000001 1.032000000000001Q116.44800000000001 1.184000000000001 116.44800000000001 1.5519999999999996V5.232H120.048Q120.32000000000001 5.232 120.44800000000001 5.144Q120.57600000000001 5.056 120.64 4.752000000000001L120.848 3.6320000000000006H121.168Q121.12 4.5760000000000005 121.12 5.5520000000000005Q121.12 6.5120000000000005 121.168 7.472H120.976L120.62400000000001 6.224Q120.512 5.872000000000001 120.304 5.736000000000001Q120.096 5.6000000000000005 119.68 5.6000000000000005H116.44800000000001V9.584Q116.44800000000001 9.936 116.57600000000001 10.072Q116.70400000000001 10.208 117.12 10.208H120.67200000000001Q121.152 10.208 121.48 10.056000000000001Q121.808 9.904 122.15200000000002 9.424Q122.49600000000001 8.944 122.928 7.968Z"/>
    <path fill="#282828" d="M130.0 1.7439999999999998Q130.0 1.3599999999999994 129.904 1.2000000000000002Q129.808 1.040000000000001 129.536 0.9920000000000009L128.448 0.8000000000000007V0.5440000000000005Q129.472 0.5760000000000005 130.94400000000002 0.48800000000000043Q132.416 0.40000000000000036 133.024 0.40000000000000036Q134.592 0.40000000000000036 135.50400000000002 0.5760000000000005Q136.416 0.7520000000000007 137.224 1.2160000000000002Q138.032 1.6799999999999997 138.55200000000002 2.296Q139.072 2.912 139.36 3.712Q139.648 4.5120000000000005 139.648 5.408Q139.648 6.912000000000001 138.816 8.296Q137.984 9.68 136.656 10.128Q135.328 10.576 134.08 10.576L131.488 10.512H128.288V10.256L129.536 9.984Q129.792 9.936 129.89600000000002 9.776Q130.0 9.616 130.0 9.168000000000001ZM131.312 8.784Q131.312 9.296000000000001 131.864 9.736Q132.416 10.176 133.45600000000002 10.176Q135.296 10.176 136.68 8.968Q138.064 7.76 138.064 5.344Q138.064 3.232 136.624 2.0160000000000005Q135.184 0.8000000000000007 132.624 0.8000000000000007Q131.76 0.8000000000000007 131.536 0.9680000000000009Q131.312 1.136000000000001 131.312 1.7439999999999998Z"/>
    <path fill="#282828" d="M147.136 9.696V1.4239999999999995Q147.136 1.152000000000001 147.048 1.040000000000001Q146.96 0.9280000000000008 146.73600000000002 0.9120000000000008L145.328 0.7680000000000007V0.5120000000000005Q145.50400000000002 0.5600000000000005 148.68800000000002 0.5600000000000005Q149.632 0.5600000000000005 150.192 0.5120000000000005V0.7840000000000007L148.784 0.9280000000000008Q148.56 0.9440000000000008 148.472 1.040000000000001Q148.38400000000001 1.136000000000001 148.38400000000001 1.4239999999999995V9.696Q148.38400000000001 9.968 148.464 10.056000000000001Q148.544 10.144 148.784 10.16L150.192 10.24V10.624Q149.552 10.56 147.76000000000002 10.56Q145.96800000000002 10.56 145.328 10.624V10.24L146.73600000000002 10.16Q146.976 10.128 147.05599999999998 10.048Q147.136 9.968 147.136 9.696Z"/>
    <path fill="#282828" d="M158.64000000000001 6.016 157.36 9.728Q157.312 9.888 157.312 9.984Q157.312 10.112 157.40800000000002 10.176Q157.50400000000002 10.24 157.80800000000002 10.256L158.928 10.336V10.592Q158.62400000000002 10.56 156.96 10.56Q155.29600000000002 10.56 154.99200000000002 10.592V10.336L156.0 10.256Q156.52800000000002 10.208 156.73600000000002 9.664L160.32000000000002 0.0H160.78400000000002L164.32000000000002 9.552Q164.43200000000002 9.824 164.52800000000002 9.92Q164.62400000000002 10.016 164.88000000000002 10.096L165.76000000000002 10.368V10.608Q164.94400000000002 10.56 163.66400000000002 10.56Q162.38400000000001 10.56 161.568 10.608V10.368L162.62400000000002 10.208Q162.928 10.16 163.048 10.096Q163.168 10.032 163.168 9.904Q163.168 9.808 163.08800000000002 9.584L161.792 6.016ZM161.66400000000002 5.664000000000001 160.17600000000002 1.5359999999999996 158.768 5.664000000000001Z"/>
    </g>
  </g>
</svg>
